HIERARCHY
ROOT newVegas:Hips
{
	OFFSET 0.000000 96.479958 0.000000
	CHANNELS 6 Xposition Yposition Zposition Xrotation Yrotation Zrotation
	JOINT newVegas:Pelvis
	{
		OFFSET 0.000000 0.000000 0.000000
		CHANNELS 3 Xrotation Yrotation Zrotation
		JOINT newVegas:LeftUpLeg
		{
			OFFSET 18.735201 -5.666702 -4.541200
			CHANNELS 3 Xrotation Yrotation Zrotation
			JOINT newVegas:LeftLeg
			{
				OFFSET -0.021200 -31.938179 0.493100
				CHANNELS 3 Xrotation Yrotation Zrotation
				JOINT newVegas:LeftFoot
				{
					OFFSET 0.021200 -31.938179 -4.336299
					CHANNELS 3 Xrotation Yrotation Zrotation
					JOINT newVegas:LeftToeBase
					{
						OFFSET 0.943001 -26.722000 15.023500
						CHANNELS 3 Xrotation Yrotation Zrotation
						End Site
						{
							OFFSET 0.000000 30.670183 0.000000
						}
					}
				}
				JOINT newVegas:Left_PantLeg
				{
					OFFSET 0.663870 -9.044666 -1.108900
					CHANNELS 3 Xrotation Yrotation Zrotation
					End Site
					{
						OFFSET 1.415995 20.635357 0.000000
					}
				}
			}
		}
		JOINT newVegas:RightUpLeg
		{
			OFFSET -18.735201 -5.666702 -4.541200
			CHANNELS 3 Xrotation Yrotation Zrotation
			JOINT newVegas:RightLeg
			{
				OFFSET 0.018946 -31.938133 0.493100
				CHANNELS 3 Xrotation Yrotation Zrotation
				JOINT newVegas:RightFoot
				{
					OFFSET -0.018946 -31.938126 -4.336299
					CHANNELS 3 Xrotation Yrotation Zrotation
					JOINT newVegas:RightToeBase
					{
						OFFSET -0.943001 -26.722004 15.023500
						CHANNELS 3 Xrotation Yrotation Zrotation
						End Site
						{
							OFFSET 0.000000 30.670187 0.000000
						}
					}
				}
				JOINT newVegas:Right_PantLeg
				{
					OFFSET -0.661674 -9.044716 -1.108900
					CHANNELS 3 Xrotation Yrotation Zrotation
					End Site
					{
						OFFSET -1.415958 20.635269 0.000000
					}
				}
			}
		}
	}
	JOINT newVegas:Spine
	{
		OFFSET 0.000000 10.199997 -0.299500
		CHANNELS 3 Xrotation Yrotation Zrotation
		JOINT newVegas:Spine1
		{
			OFFSET 0.000000 11.900002 -1.516600
			CHANNELS 3 Xrotation Yrotation Zrotation
			JOINT newVegas:Spine2
			{
				OFFSET 0.000000 13.600006 -2.842500
				CHANNELS 3 Xrotation Yrotation Zrotation
				JOINT newVegas:Neck
				{
					OFFSET 0.000000 9.624100 -2.890100
					CHANNELS 3 Xrotation Yrotation Zrotation
					JOINT newVegas:Head
					{
						OFFSET 0.000000 14.068802 -1.351900
						CHANNELS 3 Xrotation Yrotation Zrotation
						JOINT newVegas:Hair_Back
						{
							OFFSET 0.000000 3.231903 -17.524799
							CHANNELS 3 Xrotation Yrotation Zrotation
							End Site
							{
								OFFSET 0.000000 19.849884 0.000000
							}
						}
						JOINT newVegas:Hair_Front
						{
							OFFSET 0.000000 31.260406 4.573800
							CHANNELS 3 Xrotation Yrotation Zrotation
							JOINT newVegas:Hair_Front1
							{
								OFFSET 0.000000 2.284103 11.993300
								CHANNELS 3 Xrotation Yrotation Zrotation
								JOINT newVegas:Hair_Front2
								{
									OFFSET 0.000000 2.284103 11.993300
									CHANNELS 3 Xrotation Yrotation Zrotation
									End Site
									{
										OFFSET 0.000000 12.208862 0.000000
									}
								}
							}
						}
						JOINT newVegas:Jowel
						{
							OFFSET 0.000000 -7.458206 6.864100
							CHANNELS 3 Xrotation Yrotation Zrotation
							End Site
							{
								OFFSET 0.000000 19.849884 0.000000
							}
						}
					}
				}
				JOINT newVegas:LeftShoulder
				{
					OFFSET 15.263000 10.923401 -0.547700
					CHANNELS 3 Xrotation Yrotation Zrotation
					JOINT newVegas:LeftArm
					{
						OFFSET 25.438599 -2.830597 -13.032500
						CHANNELS 3 Xrotation Yrotation Zrotation
						JOINT newVegas:LeftForeArm
						{
							OFFSET 29.960503 0.000000 0.000000
							CHANNELS 3 Xrotation Yrotation Zrotation
							JOINT newVegas:LeftHand
							{
								OFFSET 27.849251 0.000000 0.000000
								CHANNELS 3 Xrotation Yrotation Zrotation
								JOINT newVegas:LeftHandThumb1
								{
									OFFSET 4.487587 -3.305161 6.305391
									CHANNELS 3 Xrotation Yrotation Zrotation
									JOINT newVegas:LeftHandThumb2
									{
										OFFSET 5.480453 -3.164139 3.164143
										CHANNELS 3 Xrotation Yrotation Zrotation
										JOINT newVegas:LeftHandThumb3
										{
											OFFSET 5.159721 -2.978973 2.978967
											CHANNELS 3 Xrotation Yrotation Zrotation
											End Site
											{
												OFFSET 2.494507 5.926697 1.738678
											}
										}
									}
								}
								JOINT newVegas:LeftHandIndex1
								{
									OFFSET 18.578728 -0.527832 5.208049
									CHANNELS 3 Xrotation Yrotation Zrotation
									JOINT newVegas:LeftHandIndex2
									{
										OFFSET 3.192009 0.000000 0.000000
										CHANNELS 3 Xrotation Yrotation Zrotation
										JOINT newVegas:LeftHandIndex3
										{
											OFFSET 3.835129 0.000000 0.000000
											CHANNELS 3 Xrotation Yrotation Zrotation
											End Site
											{
												OFFSET -0.034599 3.816971 0.371180
											}
										}
									}
								}
								JOINT newVegas:LeftHandMiddle1
								{
									OFFSET 18.476105 0.000000 0.000000
									CHANNELS 3 Xrotation Yrotation Zrotation
									JOINT newVegas:LeftHandMiddle2
									{
										OFFSET 3.324875 0.000000 0.000000
										CHANNELS 3 Xrotation Yrotation Zrotation
										JOINT newVegas:LeftHandMiddle3
										{
											OFFSET 4.596550 0.000000 0.000000
											CHANNELS 3 Xrotation Yrotation Zrotation
											End Site
											{
												OFFSET 0.057701 4.578827 0.399218
											}
										}
									}
								}
								JOINT newVegas:LeftHandRing1
								{
									OFFSET 17.732719 0.121887 -4.201567
									CHANNELS 3 Xrotation Yrotation Zrotation
									JOINT newVegas:LeftHandRing2
									{
										OFFSET 2.733170 0.000000 0.000000
										CHANNELS 3 Xrotation Yrotation Zrotation
										JOINT newVegas:LeftHandRing3
										{
											OFFSET 3.178268 0.000000 0.000000
											CHANNELS 3 Xrotation Yrotation Zrotation
											End Site
											{
												OFFSET 0.119102 3.170624 0.185394
											}
										}
									}
								}
								JOINT newVegas:LeftHandPinky1
								{
									OFFSET 15.989624 -0.606689 -7.535461
									CHANNELS 3 Xrotation Yrotation Zrotation
									JOINT newVegas:LeftHandPinky2
									{
										OFFSET 2.538986 0.000000 0.000000
										CHANNELS 3 Xrotation Yrotation Zrotation
										JOINT newVegas:LeftHandPinky3
										{
											OFFSET 2.593102 0.000000 0.000000
											CHANNELS 3 Xrotation Yrotation Zrotation
											End Site
											{
												OFFSET -0.150902 2.584198 0.152708
											}
										}
									}
								}
							}
							JOINT newVegas:Left_Sleeve
							{
								OFFSET 0.267448 -0.649796 0.577675
								CHANNELS 3 Xrotation Yrotation Zrotation
								End Site
								{
									OFFSET 0.000000 15.991241 0.000000
								}
							}
							JOINT newVegas:Left_CapeC
							{
								OFFSET 15.715958 -8.608795 -6.935905
								CHANNELS 3 Xrotation Yrotation Zrotation
								JOINT newVegas:Left_CapeC1
								{
									OFFSET 0.000000 -8.688499 0.000000
									CHANNELS 3 Xrotation Yrotation Zrotation
									End Site
									{
										OFFSET 0.000000 8.688499 0.000000
									}
								}
							}
						}
						JOINT newVegas:Left_CapeB
						{
							OFFSET 26.118385 -8.608795 -7.079235
							CHANNELS 3 Xrotation Yrotation Zrotation
							JOINT newVegas:Left_CapeB1
							{
								OFFSET 0.000000 -8.688499 0.000000
								CHANNELS 3 Xrotation Yrotation Zrotation
								End Site
								{
									OFFSET 0.000000 8.688499 0.000000
								}
							}
						}
						JOINT newVegas:Left_CapeA
						{
							OFFSET 5.115639 -8.608795 -10.395809
							CHANNELS 3 Xrotation Yrotation Zrotation
							JOINT newVegas:Left_CapeA1
							{
								OFFSET 0.000000 -8.688499 0.000000
								CHANNELS 3 Xrotation Yrotation Zrotation
								End Site
								{
									OFFSET 0.000000 8.688499 0.000000
								}
							}
						}
					}
				}
				JOINT newVegas:RightShoulder
				{
					OFFSET -15.263000 10.923401 -0.547700
					CHANNELS 3 Xrotation Yrotation Zrotation
					JOINT newVegas:RightArm
					{
						OFFSET -25.438599 -2.830597 -13.032500
						CHANNELS 3 Xrotation Yrotation Zrotation
						JOINT newVegas:RightForeArm
						{
							OFFSET -29.960503 0.000000 0.000000
							CHANNELS 3 Xrotation Yrotation Zrotation
							JOINT newVegas:RightHand
							{
								OFFSET -27.849251 0.000000 0.000000
								CHANNELS 3 Xrotation Yrotation Zrotation
								JOINT newVegas:RightHandThumb1
								{
									OFFSET -4.487587 -3.305161 6.305391
									CHANNELS 3 Xrotation Yrotation Zrotation
									JOINT newVegas:RightHandThumb2
									{
										OFFSET -5.480453 -3.164139 3.164143
										CHANNELS 3 Xrotation Yrotation Zrotation
										JOINT newVegas:RightHandThumb3
										{
											OFFSET -5.159721 -2.978973 2.978967
											CHANNELS 3 Xrotation Yrotation Zrotation
											End Site
											{
												OFFSET -2.494507 5.926697 1.738678
											}
										}
									}
								}
								JOINT newVegas:RightHandIndex1
								{
									OFFSET -18.578728 -0.527832 5.208049
									CHANNELS 3 Xrotation Yrotation Zrotation
									JOINT newVegas:RightHandIndex2
									{
										OFFSET -3.192009 0.000000 0.000000
										CHANNELS 3 Xrotation Yrotation Zrotation
										JOINT newVegas:RightHandIndex3
										{
											OFFSET -3.835129 0.000000 0.000000
											CHANNELS 3 Xrotation Yrotation Zrotation
											End Site
											{
												OFFSET 0.034599 3.816971 0.371180
											}
										}
									}
								}
								JOINT newVegas:RightHandMiddle1
								{
									OFFSET -18.476105 0.000000 0.000000
									CHANNELS 3 Xrotation Yrotation Zrotation
									JOINT newVegas:RightHandMiddle2
									{
										OFFSET -3.324875 0.000000 0.000000
										CHANNELS 3 Xrotation Yrotation Zrotation
										JOINT newVegas:RightHandMiddle3
										{
											OFFSET -4.596550 0.000000 0.000000
											CHANNELS 3 Xrotation Yrotation Zrotation
											End Site
											{
												OFFSET -0.057701 4.578827 0.399218
											}
										}
									}
								}
								JOINT newVegas:RightHandRing1
								{
									OFFSET -17.732719 0.121887 -4.201567
									CHANNELS 3 Xrotation Yrotation Zrotation
									JOINT newVegas:RightHandRing2
									{
										OFFSET -2.733170 0.000000 0.000000
										CHANNELS 3 Xrotation Yrotation Zrotation
										JOINT newVegas:RightHandRing3
										{
											OFFSET -3.178268 0.000000 0.000000
											CHANNELS 3 Xrotation Yrotation Zrotation
											End Site
											{
												OFFSET -0.119102 3.170624 0.185394
											}
										}
									}
								}
								JOINT newVegas:RightHandPinky1
								{
									OFFSET -15.989624 -0.606689 -7.535461
									CHANNELS 3 Xrotation Yrotation Zrotation
									JOINT newVegas:RightHandPinky2
									{
										OFFSET -2.538986 0.000000 0.000000
										CHANNELS 3 Xrotation Yrotation Zrotation
										JOINT newVegas:RightHandPinky3
										{
											OFFSET -2.593102 0.000000 0.000000
											CHANNELS 3 Xrotation Yrotation Zrotation
											End Site
											{
												OFFSET 0.150902 2.584198 0.152708
											}
										}
									}
								}
							}
							JOINT newVegas:Right_CapeC
							{
								OFFSET -15.715958 -8.608795 -6.935905
								CHANNELS 3 Xrotation Yrotation Zrotation
								JOINT newVegas:Right_CapeC1
								{
									OFFSET 0.000000 -8.688499 0.000000
									CHANNELS 3 Xrotation Yrotation Zrotation
									End Site
									{
										OFFSET 0.000000 8.688499 0.000000
									}
								}
							}
							JOINT newVegas:Right_Sleeve
							{
								OFFSET -0.267448 -0.649994 0.577675
								CHANNELS 3 Xrotation Yrotation Zrotation
								End Site
								{
									OFFSET 0.000000 15.991302 0.000000
								}
							}
						}
						JOINT newVegas:Right_CapeA
						{
							OFFSET -5.115540 -8.608795 -10.395824
							CHANNELS 3 Xrotation Yrotation Zrotation
							JOINT newVegas:Right_CapeA1
							{
								OFFSET 0.000000 -8.688499 0.000000
								CHANNELS 3 Xrotation Yrotation Zrotation
								End Site
								{
									OFFSET 0.000000 8.688499 0.000000
								}
							}
						}
						JOINT newVegas:Right_CapeB
						{
							OFFSET -26.118187 -8.608795 -7.079266
							CHANNELS 3 Xrotation Yrotation Zrotation
							JOINT newVegas:Right_CapeB1
							{
								OFFSET 0.000000 -8.688499 0.000000
								CHANNELS 3 Xrotation Yrotation Zrotation
								End Site
								{
									OFFSET 0.000000 8.688499 0.000000
								}
							}
						}
					}
				}
				JOINT newVegas:Left_Collar
				{
					OFFSET 18.625099 8.655502 8.828100
					CHANNELS 3 Xrotation Yrotation Zrotation
					JOINT newVegas:Left_Collar1
					{
						OFFSET 14.783401 10.540405 -1.259500
						CHANNELS 3 Xrotation Yrotation Zrotation
						End Site
						{
							OFFSET 0.000000 18.199875 0.000000
						}
					}
				}
				JOINT newVegas:Collar_Back
				{
					OFFSET 0.000000 15.630707 -20.132601
					CHANNELS 3 Xrotation Yrotation Zrotation
					End Site
					{
						OFFSET 0.000000 22.523010 0.000000
					}
				}
				JOINT newVegas:Left_Peck
				{
					OFFSET 17.239599 -5.132599 25.482599
					CHANNELS 3 Xrotation Yrotation Zrotation
					End Site
					{
						OFFSET 0.000000 22.523010 0.000000
					}
				}
				JOINT newVegas:Right_Peck
				{
					OFFSET -17.239599 -5.132202 25.482599
					CHANNELS 3 Xrotation Yrotation Zrotation
					End Site
					{
						OFFSET 0.000000 22.523010 0.000000
					}
				}
				JOINT newVegas:Right_Collar
				{
					OFFSET -18.625099 8.655792 8.828100
					CHANNELS 3 Xrotation Yrotation Zrotation
					JOINT newVegas:Right_Collar1
					{
						OFFSET -14.783401 10.539993 -1.259500
						CHANNELS 3 Xrotation Yrotation Zrotation
						End Site
						{
							OFFSET 0.000000 18.199631 0.000000
						}
					}
				}
			}
		}
		JOINT newVegas:Belly
		{
			OFFSET 0.000000 -6.540398 9.014299
			CHANNELS 3 Xrotation Yrotation Zrotation
			End Site
			{
				OFFSET 0.000000 11.566666 0.000000
			}
		}
	}
	JOINT newVegas:ElvisFacialAnim_Joint
	{
		OFFSET 1.000000 -95.330101 -8.825800
		CHANNELS 3 Xrotation Yrotation Zrotation
		End Site
		{
			OFFSET 0.000000 35.315800 0.000000
		}
	}
}
MOTION
Frames: 4
Frame Time: 0.033333
-1.697394 70.799545 7.406467 -0.957424 -17.569390 0.370385 0.000000 -0.000000 0.000000 -91.663352 10.407734 10.967925 106.738399 4.958815 2.250017 26.584628 1.111881 9.363084 -0.000001 0.000000 0.000000 0.000000 -0.000001 -0.000000 -73.513524 -2.842220 10.198514 85.691294 -10.778491 -10.084185 -9.853081 -15.137733 6.072500 -0.000000 0.000000 0.000000 -0.000001 -0.000001 -0.000000 55.063411 -4.494817 6.265221 6.967995 -0.187560 0.498805 6.968780 -0.217828 0.475538 -3.224275 0.360448 -0.543239 -3.224273 0.360448 -0.543244 0.000001 -0.000000 0.000001 -3.224270 0.360468 -0.543253 -3.224279 0.360431 -0.543240 -0.000002 -0.000001 -0.000001 0.000001 -0.000000 0.000001 13.745035 -25.137801 22.867642 -111.539264 -14.214813 -35.860945 0.000146 -73.274146 0.000143 -123.222282 -4.427663 31.993081 4.709219 9.560378 3.111991 19.473195 -1.474897 7.636919 0.000000 0.000000 -0.000001 -0.212815 3.933715 -36.747131 2.942141 5.078889 -60.144610 -0.000000 -0.000002 -0.000000 0.405927 5.507053 -52.453162 3.387130 5.308592 -65.057456 -0.000005 -0.000002 -0.000001 -0.074381 5.736763 -61.061440 4.055045 5.569501 -72.094880 -0.000000 -0.000004 -0.000003 -6.565544 4.545159 -72.425229 3.299619 5.267199 -64.107848 -0.000002 -0.000005 0.000001 -0.000001 -0.000001 0.000002 -0.000001 -0.000001 0.000002 -0.000001 -0.000000 0.000002 -0.000000 0.000001 0.000000 -0.000000 0.000000 -0.000001 -0.000000 0.000001 0.000000 -0.000002 -0.000000 -0.000000 0.397491 29.055369 10.523031 -74.599155 44.737961 42.424545 0.000128 109.256389 -0.000141 -36.494339 -34.097319 -23.753207 8.377123 -4.904123 11.022028 21.620180 -18.183936 -18.379260 0.000000 -0.000002 -0.000001 -0.920036 1.683590 12.434972 0.748102 -2.533471 32.898293 -0.000000 -0.000001 0.000005 3.413058 -7.186232 51.650239 6.296793 -4.359579 110.634673 -0.000000 -0.000000 -0.000001 -3.349060 -2.600412 57.010561 5.440871 -4.590902 99.698195 0.000000 -0.000001 0.000002 -3.996442 -3.303957 64.593850 4.058840 -4.618637 82.610544 -0.000001 0.000002 -0.000001 0.000000 0.000003 -0.000001 0.000000 0.000002 -0.000001 0.000000 0.000002 0.000001 0.000001 0.000003 0.000002 0.000001 0.000004 0.000002 0.000001 0.000003 0.000002 0.000001 0.000004 0.000001 0.000000 -0.000000 0.000000 0.000000 -0.000000 0.000000 0.000000 -0.000000 0.000000 0.000000 -0.000000 0.000000 0.000000 -0.000000 0.000000 0.000000 -0.000000 0.000000 0.000000 -0.000000 0.000000 -0.000000 -0.000001 -0.000000 0.000000 -0.000000 0.000000 
-1.483493 72.528366 10.116215 -1.959660 -17.946191 1.503575 0.000000 -0.000002 -0.000000 -89.758890 9.087182 11.375738 99.626539 3.160070 2.155457 18.910301 2.549788 6.761713 -0.000001 -0.000000 -0.000000 0.000001 0.000000 -0.000000 -69.185698 -1.466030 8.745493 86.357818 -10.252667 -9.979167 -13.914203 -15.070386 4.864679 0.000000 0.000000 0.000000 -0.000000 -0.000000 -0.000000 56.408576 -5.717267 4.775265 7.177347 -0.209642 0.260897 7.177100 -0.233524 0.235184 -3.338311 0.321347 -0.390886 -3.338297 0.321343 -0.390884 -0.000000 0.000001 -0.000002 -3.338267 0.321341 -0.390887 -3.338293 0.321350 -0.390891 0.000002 0.000000 -0.000000 -0.000000 0.000001 0.000000 13.592170 -24.555013 22.801186 -112.311587 -13.755999 -37.370571 0.000101 -79.362659 0.000116 -119.962219 -5.743306 35.238384 4.709220 9.560377 3.111993 19.473190 -1.474899 7.636916 0.000003 0.000000 -0.000001 -0.212814 3.933712 -36.747131 2.942138 5.078889 -60.144610 -0.000000 -0.000002 0.000000 0.405928 5.507047 -52.453162 3.387131 5.308592 -65.057449 -0.000003 0.000000 -0.000001 -0.074381 5.736760 -61.061434 4.055047 5.569503 -72.094887 0.000002 -0.000001 0.000001 -6.565548 4.545156 -72.425229 3.299612 5.267203 -64.107848 0.000000 -0.000002 0.000004 0.000000 0.000002 0.000001 0.000000 0.000002 0.000001 -0.000000 0.000002 0.000001 -0.000002 0.000001 -0.000001 -0.000003 0.000000 0.000000 -0.000002 0.000001 -0.000001 -0.000004 -0.000000 0.000000 0.408403 29.283644 10.471657 -72.772285 42.458864 40.826100 0.000150 114.224580 -0.000140 -36.010513 -33.218280 -24.375618 8.377122 -4.904124 11.022033 21.620185 -18.183937 -18.379259 0.000002 -0.000000 -0.000001 -1.663819 -0.019428 27.039478 2.262015 -3.995229 59.021850 0.000000 0.000000 -0.000000 3.413057 -7.186230 51.650239 6.296792 -4.359578 110.634667 0.000000 -0.000000 0.000001 -3.349058 -2.600412 57.010558 5.440870 -4.590901 99.698195 0.000001 -0.000001 -0.000003 -3.996442 -3.303952 64.593850 4.058836 -4.618643 82.610537 0.000001 -0.000000 -0.000001 -0.000000 0.000003 0.000001 -0.000000 -0.000001 -0.000001 -0.000000 0.000002 -0.000001 0.000000 0.000001 -0.000000 0.000000 0.000002 -0.000000 0.000000 0.000001 -0.000000 0.000000 0.000002 -0.000001 0.000002 -0.000000 -0.000001 0.000002 -0.000000 -0.000001 0.000002 -0.000000 -0.000001 0.000002 -0.000000 -0.000001 0.000002 -0.000000 -0.000001 0.000002 -0.000000 -0.000001 0.000002 -0.000000 -0.000001 0.000004 -0.000001 0.000001 0.000000 -0.000002 -0.000000 
-1.384243 73.590958 13.323700 -2.440544 -18.385039 2.432404 -0.000000 -0.000001 -0.000000 -87.165173 8.182780 12.044632 87.780826 0.268502 2.078718 15.887384 2.848223 3.626301 0.000001 0.000000 -0.000000 -0.000000 -0.000000 -0.000000 -65.873746 -0.853639 7.918345 87.955727 -9.686058 -9.944640 -18.355198 -15.877149 2.380281 0.000000 -0.000000 0.000000 -0.000002 0.000001 -0.000000 57.162482 -6.500528 3.958792 7.283763 -0.248082 0.120045 7.282865 -0.271229 0.094139 -3.376197 0.315945 -0.420633 -3.376215 0.315957 -0.420642 -0.000000 -0.000000 -0.000001 -3.376186 0.315971 -0.420641 -3.376167 0.315941 -0.420637 0.000000 -0.000000 0.000000 -0.000000 -0.000000 -0.000001 13.417875 -24.217429 22.590127 -112.470997 -13.415518 -38.285048 0.000108 -82.010368 0.000120 -118.776279 -6.357225 36.698921 4.709221 9.560380 3.111994 19.473192 -1.474901 7.636918 0.000002 -0.000001 -0.000001 -0.212815 3.933717 -36.747131 2.942140 5.078882 -60.144610 0.000003 -0.000000 0.000000 0.405927 5.507048 -52.453158 3.387128 5.308593 -65.057449 -0.000003 -0.000003 -0.000002 -0.074382 5.736761 -61.061440 4.055047 5.569504 -72.094887 0.000002 0.000003 0.000001 -6.565545 4.545161 -72.425229 3.299617 5.267197 -64.107841 -0.000005 -0.000003 -0.000000 -0.000001 0.000000 -0.000000 -0.000001 0.000000 -0.000000 -0.000001 0.000000 0.000000 0.000001 -0.000003 0.000001 0.000001 -0.000004 0.000001 0.000001 -0.000003 0.000001 -0.000001 -0.000004 0.000003 0.411328 29.288261 10.460504 -72.025021 41.635501 40.247508 -0.000072 116.499477 0.000057 -35.952145 -33.448225 -24.881560 8.377122 -4.904127 11.022031 21.620182 -18.183941 -18.379257 0.000001 -0.000000 -0.000001 -1.784911 -1.005300 34.222239 3.213584 -4.428266 71.924057 -0.000000 0.000000 -0.000002 3.413057 -7.186230 51.650242 6.296793 -4.359579 110.634667 0.000001 -0.000000 0.000001 -3.349059 -2.600414 57.010558 5.440872 -4.590898 99.698195 -0.000001 0.000001 -0.000001 -3.996442 -3.303958 64.593850 4.058837 -4.618635 82.610537 -0.000001 0.000003 -0.000001 0.000002 0.000002 -0.000001 0.000002 -0.000001 -0.000004 0.000002 0.000001 -0.000001 0.000001 0.000003 0.000002 0.000001 0.000003 -0.000000 0.000001 0.000003 0.000002 0.000001 0.000003 0.000001 0.000003 -0.000000 0.000001 0.000003 -0.000000 0.000001 0.000003 -0.000000 0.000001 0.000003 -0.000000 0.000001 0.000003 -0.000000 0.000001 0.000003 -0.000000 0.000001 0.000003 -0.000000 0.000001 -0.000003 -0.000001 0.000003 -0.000000 -0.000001 -0.000000 
-1.356432 74.087769 16.944138 -2.194476 -18.961380 2.914673 0.000000 0.000001 -0.000001 -84.188345 9.306360 11.522946 73.206637 -4.459664 2.075921 15.472827 1.519175 5.029035 0.000000 -0.000000 -0.000000 0.000000 0.000000 -0.000001 -63.174079 -1.023433 7.788370 89.831235 -9.524202 -10.025573 -23.162222 -16.913075 -0.722855 0.000000 0.000001 -0.000000 0.000005 0.000000 -0.000000 57.393021 -6.598731 3.451121 7.310199 -0.241678 0.057598 7.309211 -0.262613 0.030984 -3.373883 0.310956 -0.475842 -3.373864 0.310954 -0.475844 0.000002 -0.000000 -0.000001 -3.373800 0.310941 -0.475848 -3.373951 0.310984 -0.475848 0.000001 -0.000000 0.000001 0.000002 -0.000000 -0.000001 13.366616 -24.202562 22.631057 -113.337338 -13.660311 -38.585221 0.000169 -79.122810 0.000204 -119.637320 -5.272420 35.667402 4.709222 9.560387 3.111992 19.473192 -1.474900 7.636916 0.000004 -0.000001 0.000001 -0.212814 3.933719 -36.747131 2.942138 5.078891 -60.144610 -0.000003 -0.000001 -0.000000 0.405927 5.507053 -52.453162 3.387131 5.308595 -65.057449 -0.000003 -0.000000 -0.000002 -0.074381 5.736767 -61.061440 4.055048 5.569501 -72.094880 0.000003 -0.000001 0.000000 -6.565542 4.545163 -72.425229 3.299619 5.267199 -64.107848 0.000001 -0.000005 -0.000002 0.000002 -0.000002 -0.000001 0.000002 -0.000002 -0.000001 0.000002 -0.000001 -0.000001 0.000001 -0.000003 0.000001 0.000001 -0.000003 0.000002 0.000001 -0.000003 0.000001 -0.000001 -0.000003 0.000002 0.457389 29.060348 10.268965 -73.663146 42.757906 41.276612 0.000143 114.579920 -0.000131 -36.428722 -34.190202 -25.205442 8.377122 -4.904124 11.022033 21.620182 -18.183941 -18.379267 -0.000001 0.000000 0.000001 -1.723276 -0.332029 29.373809 2.560091 -4.159225 63.212130 -0.000000 0.000001 -0.000001 3.413058 -7.186232 51.650242 6.296792 -4.359579 110.634667 0.000000 0.000000 0.000001 -3.349056 -2.600414 57.010564 5.440869 -4.590899 99.698195 -0.000001 -0.000001 -0.000002 -3.996442 -3.303956 64.593850 4.058837 -4.618638 82.610537 0.000001 0.000002 -0.000001 -0.000000 0.000001 -0.000002 -0.000000 0.000000 -0.000002 -0.000000 0.000000 -0.000002 -0.000001 0.000003 -0.000002 -0.000001 0.000004 -0.000002 -0.000001 0.000003 -0.000002 -0.000001 0.000004 -0.000002 -0.000001 0.000001 -0.000001 -0.000001 0.000001 -0.000001 -0.000001 0.000001 -0.000001 -0.000001 0.000001 -0.000001 -0.000001 0.000001 -0.000001 -0.000001 0.000001 -0.000001 -0.000001 0.000001 -0.000001 -0.000001 -0.000001 0.000002 0.000000 0.000001 -0.000001 
